<?xml version="1.0" standalone="no"?>
<!DOCTYPE svg PUBLIC "-//W3C//DTD SVG 20010904//EN"
 "http://www.w3.org/TR/2001/REC-SVG-20010904/DTD/svg10.dtd">
<svg version="1.0" xmlns="http://www.w3.org/2000/svg"
 width="166.000000pt" height="166.000000pt" viewBox="0 0 166.000000 166.000000"
 preserveAspectRatio="xMidYMid meet">
<metadata>
Created by potrace 1.14, written by Peter Selinger 2001-2017
</metadata>
<g transform="translate(0.000000,166.000000) scale(0.100000,-0.100000)"
fill="#000000" stroke="none">
<path d="M535 1480 c-5 -8 -4 -11 2 -7 6 4 13 -4 17 -16 3 -13 14 -34 26 -46
11 -13 17 -28 14 -32 -3 -5 0 -9 5 -9 6 0 10 -3 10 -7 -4 -23 3 -35 16 -30 18
7 30 -9 14 -19 -8 -5 -9 -3 -4 6 5 8 4 11 -3 6 -13 -8 -5 -36 10 -36 6 0 8 -7
5 -15 -4 -8 -2 -17 3 -20 6 -4 10 -17 10 -30 0 -18 -4 -23 -15 -19 -8 4 -15 1
-15 -5 0 -7 -10 -9 -27 -5 -30 8 -53 26 -53 43 0 5 -4 13 -10 16 -6 3 -7 -1
-4 -9 8 -21 -15 -21 -44 0 -24 16 -194 66 -187 54 2 -4 -2 -7 -10 -7 -8 0 -11
5 -8 10 3 6 -7 8 -25 5 -17 -2 -29 -2 -27 1 2 4 -34 7 -80 9 -75 2 -86 0 -105
-20 -11 -12 -20 -18 -20 -12 0 5 -5 2 -9 -6 -11 -19 -11 -190 0 -190 4 0 6 -9
4 -20 -2 -11 3 -24 13 -30 16 -9 15 -9 -2 -10 -14 0 -16 -3 -7 -13 6 -8 7 -18
3 -23 -4 -4 0 -3 8 3 13 10 16 8 16 -7 0 -10 -3 -17 -7 -14 -4 2 -4 -8 0 -23
5 -16 14 -27 20 -25 9 2 9 -3 1 -18 -8 -14 -8 -20 0 -20 6 0 8 -4 5 -10 -3 -5
-1 -10 5 -10 6 0 8 -4 5 -10 -3 -5 2 -10 12 -11 10 0 13 -3 6 -6 -7 -2 -13
-12 -13 -21 0 -15 2 -15 10 -2 8 12 10 10 10 -10 0 -14 16 -52 36 -85 19 -33
37 -68 41 -77 3 -10 9 -18 13 -18 4 0 13 -13 20 -30 11 -27 27 -36 53 -31 5 1
6 -3 2 -9 -3 -6 -12 -7 -18 -3 -8 4 -8 1 1 -9 11 -14 8 -16 -30 -16 -65 0 -70
-1 -62 -15 6 -9 4 -9 -8 1 -10 8 -19 9 -22 3 -10 -16 33 -24 51 -9 12 9 15 9
9 1 -4 -7 -2 -13 3 -13 6 0 11 5 11 10 0 6 5 10 11 10 5 0 8 -4 5 -9 -3 -5 5
-8 19 -8 14 0 23 3 20 7 -2 3 2 7 10 7 8 0 13 -3 13 -6 -1 -3 7 -24 17 -46 10
-22 18 -43 17 -47 -1 -5 6 -8 15 -8 9 0 14 -3 10 -6 -8 -8 25 -44 35 -38 13 8
-4 -28 -23 -47 -9 -9 -21 -14 -25 -11 -4 4 -4 2 -1 -4 4 -7 -2 -14 -14 -17
-12 -3 -18 -10 -15 -16 3 -5 -1 -17 -10 -25 -10 -11 -11 -16 -3 -16 6 0 25 13
40 30 16 16 29 27 29 24 0 -3 7 1 15 10 8 8 15 19 15 25 0 7 12 6 35 -4 25
-10 34 -11 30 -2 -4 7 0 4 8 -5 8 -10 17 -15 20 -11 4 3 7 1 7 -6 0 -7 5 -9
10 -6 6 3 10 1 10 -5 0 -6 6 -10 13 -9 6 1 25 -3 40 -9 16 -7 37 -12 47 -12
10 0 21 -4 24 -9 9 -14 146 -30 221 -27 39 2 104 11 145 21 41 9 87 19 103 22
15 3 27 9 27 14 0 4 9 6 20 4 12 -2 31 7 48 23 15 15 24 23 20 18 -18 -22 -6
-26 21 -7 15 11 32 17 36 13 5 -4 6 0 2 10 -4 11 1 18 15 22 17 4 19 8 10 19
-9 11 -8 14 3 14 8 0 13 -3 11 -6 -2 -3 7 -16 20 -29 25 -23 34 -17 12 8 -11
12 -10 12 5 1 9 -7 17 -22 17 -32 0 -11 4 -19 10 -19 9 0 36 -19 66 -48 8 -7
18 -11 23 -8 5 4 17 -1 25 -10 9 -8 16 -11 16 -6 0 4 -12 19 -27 33 -14 13
-23 18 -18 10 5 -9 4 -12 -3 -7 -7 4 -12 13 -13 19 0 7 -26 32 -58 57 -32 24
-58 50 -58 57 0 6 3 10 7 8 9 -5 34 46 31 63 -1 6 3 12 9 12 5 0 9 3 9 8 -3
19 2 33 11 27 6 -3 10 -2 10 3 0 5 18 6 42 2 24 -5 46 -6 50 -4 5 3 8 1 8 -4
0 -5 7 -9 15 -9 8 0 15 6 15 13 0 8 -6 11 -14 8 -7 -3 -16 2 -20 11 -4 12 -16
15 -46 12 -22 -2 -43 0 -47 6 -3 6 -1 7 4 4 11 -7 36 17 46 43 4 12 6 11 6 -2
1 -21 21 -25 21 -5 0 7 -6 19 -12 27 -11 12 -10 12 3 2 13 -10 19 -9 30 5 9
11 10 14 2 9 -7 -4 -13 -2 -13 4 0 6 6 13 14 16 8 3 17 17 21 32 4 15 11 30
16 33 6 3 11 12 13 20 1 8 7 23 14 35 7 14 8 25 1 32 -5 7 -6 10 -3 7 4 -3 13
3 20 13 9 13 10 20 1 31 -9 12 -9 13 1 7 7 -4 13 -2 14 6 1 14 4 28 8 41 1 4
3 11 4 16 0 5 4 12 8 16 4 4 4 13 1 21 -3 8 -1 20 4 27 6 6 9 29 9 50 -1 20 1
37 4 37 4 0 4 22 0 50 -3 27 -5 56 -4 65 1 8 -2 15 -7 15 -5 0 -8 3 -8 8 3 20
-2 40 -17 58 -8 10 -13 12 -9 4 4 -8 -2 -5 -12 8 -14 16 -21 20 -30 11 -8 -8
-16 -5 -32 12 -11 13 -21 18 -21 12 0 -6 -7 -14 -16 -17 -9 -4 -13 -2 -8 5 5
8 1 8 -13 0 -11 -6 -24 -7 -28 -3 -3 4 -13 -2 -21 -12 -8 -11 -14 -15 -14 -10
0 6 -7 11 -15 11 -8 0 -11 -5 -8 -10 3 -5 0 -7 -8 -5 -8 3 -28 0 -46 -7 -17
-8 -35 -10 -39 -7 -4 4 -4 -2 0 -12 5 -15 4 -17 -8 -7 -10 8 -16 9 -21 1 -3
-6 -11 -8 -16 -5 -5 4 -9 3 -9 -2 0 -4 -11 -8 -24 -8 -13 0 -22 3 -20 6 6 11
-32 40 -42 32 -5 -5 -5 -4 -1 2 5 5 16 10 25 10 9 0 16 6 14 13 -1 6 2 12 8
12 5 0 10 5 10 11 0 6 7 17 15 25 8 9 15 20 15 25 0 6 -7 3 -16 -5 -8 -9 -19
-16 -24 -16 -5 0 -6 -8 -3 -17 5 -13 2 -15 -11 -10 -9 4 -15 3 -12 -1 2 -4
-11 -25 -30 -46 -32 -36 -38 -49 -35 -69 1 -5 -8 -5 -20 -2 -16 5 -19 4 -14
-5 5 -9 4 -11 -3 -6 -6 4 -21 2 -33 -5 -17 -9 -20 -8 -14 1 6 9 1 12 -16 8
-23 -4 -24 -2 -21 29 3 22 0 33 -8 33 -10 0 -9 4 1 18 11 14 11 15 -1 4 -17
-15 -22 -64 -6 -55 8 4 8 3 0 -6 -6 -6 -24 -14 -40 -17 -19 -3 -24 -1 -16 4
11 7 9 10 -7 15 -12 3 -21 0 -21 -6 0 -8 -3 -8 -12 1 -7 7 -17 8 -30 1 -10 -5
-18 -6 -18 -2 0 11 -82 4 -94 -8 -6 -5 -16 -3 -25 4 -12 10 -14 9 -8 -6 4 -11
3 -16 -3 -12 -6 3 -10 13 -10 21 0 8 -8 29 -17 47 -9 18 -16 35 -15 39 2 8
-37 89 -47 98 -4 3 -12 17 -20 32 -8 16 -17 26 -19 23 -3 -3 -10 3 -17 12 -9
13 -14 13 -20 3z m55 -51 c0 -6 -4 -7 -10 -4 -5 3 -10 11 -10 16 0 6 5 7 10 4
6 -3 10 -11 10 -16z m28 -54 c-3 -3 -9 2 -12 12 -6 14 -5 15 5 6 7 -7 10 -15
7 -18z m559 -120 c0 -10 -5 -11 -17 -5 -10 5 -21 6 -25 2 -5 -4 -6 -2 -2 3 8
16 44 15 44 0z m-1037 -475 c0 -5 -2 -10 -4 -10 -3 0 -8 5 -11 10 -3 6 -1 10
4 10 6 0 11 -4 11 -10z m1360 -236 c0 -8 -19 -13 -24 -6 -3 5 1 9 9 9 8 0 15
-2 15 -3z m-249 -217 c-10 -9 -11 -8 -5 6 3 10 9 15 12 12 3 -3 0 -11 -7 -18z
m163 -6 c4 -5 -3 -7 -14 -4 -23 6 -26 13 -6 13 8 0 17 -4 20 -9z"/>
<path d="M1470 240 c0 -5 5 -10 11 -10 5 0 7 5 4 10 -3 6 -8 10 -11 10 -2 0
-4 -4 -4 -10z"/>
</g>
</svg>
